<svg xmlns="http://www.w3.org/2000/svg" viewBox="0 0 520 400" width="520" height="400" role="img" aria-label="KitchenAxis — Equipment, Service, Excellence — kitchenaxis.co">
  <defs>
    <linearGradient id="ka-orange" x1="0" y1="0" x2="0.15" y2="1">
      <stop offset="0" stop-color="#F9A33C"/>
      <stop offset="0.55" stop-color="#F7941E"/>
      <stop offset="1" stop-color="#E8641C"/>
    </linearGradient>
    <linearGradient id="ka-swoosh" x1="0" y1="1" x2="1" y2="0">
      <stop offset="0" stop-color="#8a919b"/>
      <stop offset="0.6" stop-color="#b3b9c1"/>
      <stop offset="1" stop-color="#d7dbe0"/>
    </linearGradient>
    <linearGradient id="ka-wordmark-orange" x1="0" y1="0" x2="1" y2="0">
      <stop offset="0" stop-color="#F7941E"/>
      <stop offset="1" stop-color="#E8641C"/>
    </linearGradient>
  </defs>
  <!-- mark, centered -->
  <g transform="translate(140,20)">
    <path d="M40 126 C96 104 150 92 206 62 C160 96 104 116 50 138 Z" fill="url(#ka-swoosh)"/>
    <g stroke="#23262b" stroke-width="23" stroke-linecap="butt" stroke-linejoin="miter" fill="none">
      <path d="M34 20 V138"/>
      <path d="M46 80 L106 20"/>
      <path d="M46 78 L106 138"/>
    </g>
    <path d="M130 138 L173 20 L216 138" fill="none" stroke="url(#ka-orange)" stroke-width="23" stroke-linecap="butt" stroke-linejoin="miter"/>
  </g>
  <text x="260" y="248" text-anchor="middle" font-family="'Segoe UI', Arial, Helvetica, sans-serif" font-weight="800" font-size="58" letter-spacing="-1">
    <tspan fill="#23262b">KITCHEN</tspan><tspan fill="url(#ka-wordmark-orange)">AXIS</tspan>
  </text>
  <text x="260" y="284" text-anchor="middle" font-family="'Segoe UI', Arial, Helvetica, sans-serif" font-weight="600" font-size="16" letter-spacing="6" fill="#5c6470">
    EQUIPMENT<tspan fill="#F7941E"> · </tspan>SERVICE<tspan fill="#F7941E"> · </tspan>EXCELLENCE
  </text>
  <line x1="176" y1="316" x2="216" y2="316" stroke="#b0b7c0" stroke-width="1.5"/>
  <text x="260" y="322" text-anchor="middle" font-family="'Segoe UI', Arial, Helvetica, sans-serif" font-weight="500" font-size="18" letter-spacing="1" fill="#5c6470">kitchenaxis.co</text>
  <line x1="304" y1="316" x2="344" y2="316" stroke="#b0b7c0" stroke-width="1.5"/>
</svg>
